<svg width="24" height="7" viewBox="0 0 24 7" fill="none" xmlns="http://www.w3.org/2000/svg">
<path fill-rule="evenodd" clip-rule="evenodd" d="M11.695 1.60303L14.3388 3.31288L18.559 1.65663C19.9833 1.17576 21.8137 0.64129 24 0C18.6104 0.481065 14.5425 0.961739 11.695 1.60303ZM9.66118 3.41989L7.32208 2.7786C6.00005 3.15285 4.72885 3.74034 3.55948 4.48864C2.38974 5.23635 1.47469 6.09167 0.864411 7H4.83068C5.13582 6.51893 5.64427 5.98446 6.30519 5.45018C7.27106 4.59546 8.38998 3.95416 9.66118 3.41989ZM12.4579 4.43484L10.4748 3.74014C10.017 3.95417 9.45788 4.22121 8.79658 4.70188C7.88135 5.34317 7.06776 6.14469 6.35601 7H10.0678C10.5762 6.14469 11.3898 5.28996 12.4579 4.43484ZM7.93236 0H0L7.93217 2.24432C11.4406 3.36609 14.6948 4.64886 17.6954 5.98446L7.93236 0Z" fill="#B7B7B7"/>
</svg>
